<?xml version="1.0" encoding="UTF-8" standalone="no"?>
<!-- Created with Inkscape (http://www.inkscape.org/) -->

<svg
   xmlns:dc="http://purl.org/dc/elements/1.1/"
   xmlns:cc="http://creativecommons.org/ns#"
   xmlns:rdf="http://www.w3.org/1999/02/22-rdf-syntax-ns#"
   xmlns:svg="http://www.w3.org/2000/svg"
   xmlns="http://www.w3.org/2000/svg"
   xmlns:sodipodi="http://sodipodi.sourceforge.net/DTD/sodipodi-0.dtd"
   xmlns:inkscape="http://www.inkscape.org/namespaces/inkscape"
   height="32"
   width="32"
   version="1.1"
   viewBox="0 0 8.4666665 8.4666669"
   id="svg24"
   sodipodi:docname="checkbox-checked@2.svg"
   inkscape:version="0.92.1 r15371">
  <sodipodi:namedview
     pagecolor="#ffffff"
     bordercolor="#666666"
     borderopacity="1"
     objecttolerance="10"
     gridtolerance="10"
     guidetolerance="10"
     inkscape:pageopacity="0"
     inkscape:pageshadow="2"
     inkscape:window-width="1600"
     inkscape:window-height="831"
     id="namedview26"
     showgrid="false"
     inkscape:zoom="7.375"
     inkscape:cx="16"
     inkscape:cy="16"
     inkscape:window-x="0"
     inkscape:window-y="0"
     inkscape:window-maximized="1"
     inkscape:current-layer="svg24" />
  <defs
     id="defs7">
    <linearGradient
       id="linearGradient3856-65"
       y2="499.21"
       gradientUnits="userSpaceOnUse"
       x2="400.56"
       gradientTransform="matrix(1.1378,0,0,1.1378,-458.95,-838.54)"
       y1="514.21"
       x1="400.56">
      <stop
         stop-color="#1d60c4"
         offset="0"
         id="stop2" />
      <stop
         stop-color="#1d60c4"
         offset="1"
         id="stop4" />
    </linearGradient>
  </defs>
  <metadata
     id="metadata9">
    <rdf:RDF>
      <cc:Work
         rdf:about="">
        <dc:format>image/svg+xml</dc:format>
        <dc:type
           rdf:resource="http://purl.org/dc/dcmitype/StillImage" />
        <dc:title />
      </cc:Work>
    </rdf:RDF>
  </metadata>
  <g
     transform="translate(0 -288.53)"
     id="g22">
    <g
       transform="matrix(2 0 0 2 -.00015830 -296.99)"
       id="g20">
      <g
         id="checkbox-checked"
         transform="matrix(.21704 0 0 .21704 2.9488 351.71)">
        <rect
           rx="3.4844"
           ry="3.4844"
           height="17.067"
           width="17.067"
           y="-270.37"
           x="-12.367"
           fill="url(#linearGradient3856-65)"
           id="rect11"
           style="fill:#5294e2;fill-opacity:1" />
        <rect
           rx="3.0199"
           ry="3.0199"
           height="14.791"
           width="14.791"
           y="-269.24"
           x="-11.23"
           fill="#5294e2"
           id="rect13"
           style="fill:#5294e2;fill-opacity:1" />
        <path
           opacity=".2"
           d="m0.000080874-265.75c-0.28512 0.06-0.56904 0.24-0.74667 0.5l-4.5867 6.72-1.7422-1.7422c-0.44452-0.44452-1.1555-0.44452-1.6 0-0.44452 0.44452-0.44452 1.1555 0 1.6l2.5244 2.5244 0.17778 0.17776c0.047897 0.0473 0.08448 0.10272 0.14222 0.14224 0.044483 0.0305 0.095354 0.0478 0.14223 0.0711 0.058136 0.0287 0.11658 0.053 0.17777 0.0712 0.03456 0.011 0.07168 0.0285 0.10656 0.0355 0.022406 0.005 0.048433-0.003 0.071143 0 0.096 0.0123 0.18837 0.0123 0.28444 0 0.096-0.0125 0.19342-0.034 0.28445-0.0712 0.14289-0.0565 0.27868-0.13506 0.39111-0.2489 0.04736-0.0479 0.10272-0.0847 0.14222-0.14221l5.369-7.86c0.35524-0.51865 0.23421-1.2448-0.28444-1.6-0.25933-0.17762-0.56822-0.23109-0.85333-0.17778z"
           id="path15" />
        <path
           fill="#e9f1fc"
           d="m0.000080874-266.88c-0.28512 0.05-0.56904 0.23-0.74667 0.49l-4.5867 6.72-1.7422-1.7422c-0.44452-0.44453-1.1555-0.44453-1.6 0-0.44452 0.44451-0.44452 1.1555 0 1.6l2.5244 2.5244 0.17778 0.17777c0.047897 0.0473 0.08448 0.10272 0.14222 0.14223 0.044483 0.0305 0.095354 0.0478 0.14223 0.0711 0.058136 0.0287 0.11658 0.053 0.17777 0.0711 0.03456 0.011 0.07168 0.0285 0.10656 0.0355 0.022406 0.005 0.048433-0.003 0.071143 0 0.096 0.0123 0.18837 0.0123 0.28444 0 0.096-0.0125 0.19342-0.034 0.28445-0.0711 0.14289-0.0565 0.27868-0.13507 0.39111-0.2489 0.04736-0.0479 0.10272-0.0846 0.14222-0.14221l5.3689-7.8578c0.35524-0.51865 0.23421-1.2448-0.28444-1.6-0.25933-0.17761-0.56822-0.23109-0.85333-0.17777z"
           id="path17" />
      </g>
    </g>
  </g>
</svg>
