<?xml version="1.0" encoding="UTF-8" standalone="no"?>
<svg
   xmlns:dc="http://purl.org/dc/elements/1.1/"
   xmlns:cc="http://creativecommons.org/ns#"
   xmlns:rdf="http://www.w3.org/1999/02/22-rdf-syntax-ns#"
   xmlns:svg="http://www.w3.org/2000/svg"
   xmlns="http://www.w3.org/2000/svg"
   xmlns:sodipodi="http://sodipodi.sourceforge.net/DTD/sodipodi-0.dtd"
   xmlns:inkscape="http://www.inkscape.org/namespaces/inkscape"
   width="14"
   height="14"
   version="1.1"
   style="enable-background:new"
   id="svg10"
   sodipodi:docname="titlebutton-maximize-active.svg"
   inkscape:version="0.92.1 r15371">
  <metadata
     id="metadata16">
    <rdf:RDF>
      <cc:Work
         rdf:about="">
        <dc:format>image/svg+xml</dc:format>
        <dc:type
           rdf:resource="http://purl.org/dc/dcmitype/StillImage" />
        <dc:title></dc:title>
      </cc:Work>
    </rdf:RDF>
  </metadata>
  <defs
     id="defs14">
    <style
       id="current-color-scheme"
       type="text/css">
   .ColorScheme-Text { color:#6e6e6e; } .ColorScheme-Highlight { color:#5294e2; } .ColorScheme-ButtonBackground { color:#ffffff; }
  </style>
  </defs>
  <sodipodi:namedview
     pagecolor="#ffffff"
     bordercolor="#666666"
     borderopacity="1"
     objecttolerance="10"
     gridtolerance="10"
     guidetolerance="10"
     inkscape:pageopacity="0"
     inkscape:pageshadow="2"
     inkscape:window-width="1600"
     inkscape:window-height="827"
     id="namedview12"
     showgrid="true"
     inkscape:zoom="39.76"
     inkscape:cx="3.4176609"
     inkscape:cy="8.460177"
     inkscape:window-x="0"
     inkscape:window-y="0"
     inkscape:window-maximized="1"
     inkscape:current-layer="svg10"
     showguides="false">
    <inkscape:grid
       type="xygrid"
       id="grid4489" />
  </sodipodi:namedview>
  <rect
     style="opacity:0.4;fill:#6e6e6e;fill-opacity:1;stroke:none;stroke-width:2.32974362;stroke-linecap:round;stroke-linejoin:round;stroke-miterlimit:4;stroke-dasharray:none;stroke-dashoffset:0;stroke-opacity:1"
     id="rect4502"
     width="14"
     height="14"
     x="0"
     y="0"
     rx="2"
     ry="2" />
  <path
     style="opacity:0.4;fill:#6e6e6e;fill-opacity:1;stroke:none;stroke-width:2.47026706;stroke-linecap:round;stroke-linejoin:round;stroke-miterlimit:4;stroke-dasharray:none;stroke-dashoffset:0;stroke-opacity:1"
     d="M 2,0 C 0.892,0 0,0.892 0,2 v 10 c 0,1.108 0.892,2 2,2 h 10 c 1.108,0 2,-0.892 2,-2 V 2 C 14,0.892 13.108,0 12,0 Z M 2.7148438,1 H 11.285156 C 12.234871,1 13,1.7651295 13,2.7148438 V 11.285156 C 13,12.234871 12.234871,13 11.285156,13 H 2.7148438 C 1.7651295,13 1,12.234871 1,11.285156 V 2.7148438 C 1,1.7651295 1.7651295,1 2.7148438,1 Z"
     id="rect4495"
     inkscape:connector-curvature="0" />
  <path
     inkscape:connector-curvature="0"
     id="path4"
     d="M 5,2.9999995 11,9 V 4.333333 C 11,3.7793329 10.220667,2.9999995 9.6666669,2.9999995 Z M 3,5 V 9.666667 C 3,10.220667 3.779333,11 4.333333,11 H 9 Z"
     style="opacity:1;fill:#6e6e6e;fill-opacity:1;stroke:none;stroke-width:2.66666698;stroke-linecap:round;stroke-linejoin:round;stroke-miterlimit:4;stroke-dasharray:none;stroke-opacity:1;enable-background:new"
     sodipodi:nodetypes="ccssccsscc" />
</svg>
