<?xml version="1.0" encoding="UTF-8" standalone="no"?>
<svg
   xmlns:dc="http://purl.org/dc/elements/1.1/"
   xmlns:cc="http://creativecommons.org/ns#"
   xmlns:rdf="http://www.w3.org/1999/02/22-rdf-syntax-ns#"
   xmlns:svg="http://www.w3.org/2000/svg"
   xmlns="http://www.w3.org/2000/svg"
   xmlns:sodipodi="http://sodipodi.sourceforge.net/DTD/sodipodi-0.dtd"
   xmlns:inkscape="http://www.inkscape.org/namespaces/inkscape"
   width="28"
   height="28"
   version="1.1"
   style="enable-background:new"
   id="svg10"
   sodipodi:docname="titlebutton-close@2.svg"
   inkscape:version="0.92.1 r15371">
  <metadata
     id="metadata16">
    <rdf:RDF>
      <cc:Work
         rdf:about="">
        <dc:format>image/svg+xml</dc:format>
        <dc:type
           rdf:resource="http://purl.org/dc/dcmitype/StillImage" />
        <dc:title></dc:title>
      </cc:Work>
    </rdf:RDF>
  </metadata>
  <defs
     id="defs14">
    <style
       id="current-color-scheme"
       type="text/css">
   .ColorScheme-Text { color:#6e6e6e; } .ColorScheme-Highlight { color:#5294e2; } .ColorScheme-ButtonBackground { color:#ffffff; }
  </style>
  </defs>
  <sodipodi:namedview
     pagecolor="#ffffff"
     bordercolor="#666666"
     borderopacity="1"
     objecttolerance="10"
     gridtolerance="10"
     guidetolerance="10"
     inkscape:pageopacity="0"
     inkscape:pageshadow="2"
     inkscape:window-width="1600"
     inkscape:window-height="827"
     id="namedview12"
     showgrid="false"
     inkscape:zoom="12.98"
     inkscape:cx="18.933583"
     inkscape:cy="12"
     inkscape:window-x="0"
     inkscape:window-y="0"
     inkscape:window-maximized="1"
     inkscape:current-layer="svg10" />
  <path
     id="path4485"
     d="m 20.001114,6.0000086 a 1.999024,1.9975615 0 0 0 -1.413372,0.585223 l -4.5837,4.5803464 -4.5641776,-4.560839 a 1.999024,1.9975615 0 0 0 -0.0196,-0.01952 1.999024,1.9975615 0 0 0 -1.4016596,-0.5774202 l -0.0196,0.02731 A 1.999024,1.9975615 0 0 0 6,8.032675 1.999024,1.9975615 0 0 0 6.58565,9.445013 l 4.5837,4.580346 -4.5837,4.580347 A 1.999024,1.9975615 0 0 0 6.0078082,20.002438 1.999024,1.9975615 0 0 0 8.0068322,22 1.999024,1.9975615 0 0 0 9.420204,21.414776 l 4.5837,-4.580346 4.564178,4.560838 A 1.999024,1.9975615 0 0 0 20.000976,22 1.999024,1.9975615 0 0 0 22,20.002438 1.999024,1.9975615 0 0 0 21.41435,18.590099 L 16.815032,13.998049 21.37921,9.43721 A 1.999024,1.9975615 0 0 0 22,7.997561 1.999024,1.9975615 0 0 0 20.000976,6 Z"
     class="ColorScheme-Text"
     style="color:#6e6e6e;opacity:1;fill:currentColor;stroke-width:1.99829257"
     inkscape:connector-curvature="0" />
</svg>
