<?xml version="1.0" encoding="UTF-8" standalone="no"?>
<svg
   xmlns:dc="http://purl.org/dc/elements/1.1/"
   xmlns:cc="http://creativecommons.org/ns#"
   xmlns:rdf="http://www.w3.org/1999/02/22-rdf-syntax-ns#"
   xmlns:svg="http://www.w3.org/2000/svg"
   xmlns="http://www.w3.org/2000/svg"
   xmlns:sodipodi="http://sodipodi.sourceforge.net/DTD/sodipodi-0.dtd"
   xmlns:inkscape="http://www.inkscape.org/namespaces/inkscape"
   width="14"
   height="14"
   version="1.1"
   style="enable-background:new"
   id="svg10"
   sodipodi:docname="titlebutton-close-hover.svg"
   inkscape:version="0.92.1 r15371">
  <metadata
     id="metadata16">
    <rdf:RDF>
      <cc:Work
         rdf:about="">
        <dc:format>image/svg+xml</dc:format>
        <dc:type
           rdf:resource="http://purl.org/dc/dcmitype/StillImage" />
        <dc:title />
      </cc:Work>
    </rdf:RDF>
  </metadata>
  <defs
     id="defs14">
    <style
       id="current-color-scheme"
       type="text/css">
   .ColorScheme-Text { color:#6e6e6e; } .ColorScheme-Highlight { color:#5294e2; } .ColorScheme-ButtonBackground { color:#ffffff; }
  </style>
  </defs>
  <sodipodi:namedview
     pagecolor="#ffffff"
     bordercolor="#666666"
     borderopacity="1"
     objecttolerance="10"
     gridtolerance="10"
     guidetolerance="10"
     inkscape:pageopacity="0"
     inkscape:pageshadow="2"
     inkscape:window-width="1600"
     inkscape:window-height="827"
     id="namedview12"
     showgrid="false"
     inkscape:zoom="39.34"
     inkscape:cx="2.6941331"
     inkscape:cy="6.5912857"
     inkscape:window-x="0"
     inkscape:window-y="0"
     inkscape:window-maximized="1"
     inkscape:current-layer="svg10" />
  <rect
     style="opacity:0.2;fill:#6e6e6e;fill-opacity:1;stroke:none;stroke-width:2.32974362;stroke-linecap:round;stroke-linejoin:round;stroke-miterlimit:4;stroke-dasharray:none;stroke-dashoffset:0;stroke-opacity:1"
     id="rect4502"
     width="14"
     height="14"
     x="0"
     y="0"
     rx="2"
     ry="2" />
  <path
     id="path4485"
     d="M 10.000557,3.0000043 A 0.99951199,0.99878073 0 0 0 9.293871,3.2926158 L 7.002021,5.5827888 4.7199322,3.3023695 a 0.99951199,0.99878073 0 0 0 -0.0098,-0.00976 0.99951199,0.99878073 0 0 0 -0.7008298,-0.2887101 l -0.0098,0.013655 A 0.99951199,0.99878073 0 0 0 3,4.0163374 0.99951199,0.99878073 0 0 0 3.292825,4.7225065 l 2.29185,2.2901731 -2.29185,2.2901732 A 0.99951199,0.99878073 0 0 0 3.0039041,10.001219 0.99951199,0.99878073 0 0 0 4.0034161,11 0.99951199,0.99878073 0 0 0 4.710102,10.707388 l 2.29185,-2.290173 2.2820888,2.280419 A 0.99951199,0.99878073 0 0 0 10.000488,11 0.99951199,0.99878073 0 0 0 11,10.001219 0.99951199,0.99878073 0 0 0 10.707175,9.2950493 L 8.4075158,6.9990243 10.689605,4.7186051 A 0.99951199,0.99878073 0 0 0 11,3.9987807 0.99951199,0.99878073 0 0 0 10.000488,3 Z"
     class="ColorScheme-Text"
     style="color:#6e6e6e;opacity:1;fill:currentColor;stroke-width:0.99914628"
     inkscape:connector-curvature="0" />
  <path
     inkscape:connector-curvature="0"
     style="opacity:0.2;fill:#6e6e6e;fill-opacity:1;stroke:none;stroke-width:2.47026706;stroke-linecap:round;stroke-linejoin:round;stroke-miterlimit:4;stroke-dasharray:none;stroke-dashoffset:0;stroke-opacity:1"
     d="M 2,0 C 0.892,0 0,0.892 0,2 v 10 c 0,1.108 0.892,2 2,2 h 10 c 1.108,0 2,-0.892 2,-2 V 2 C 14,0.892 13.108,0 12,0 Z M 2.7148438,1 H 11.285156 C 12.234871,1 13,1.7651295 13,2.7148438 V 11.285156 C 13,12.234871 12.234871,13 11.285156,13 H 2.7148438 C 1.7651295,13 1,12.234871 1,11.285156 V 2.7148438 C 1,1.7651295 1.7651295,1 2.7148438,1 Z"
     id="rect4495" />
</svg>
