<?xml version="1.0" encoding="UTF-8" standalone="no"?>
<!-- Created with Inkscape (http://www.inkscape.org/) -->
<svg xmlns:rdf="http://www.w3.org/1999/02/22-rdf-syntax-ns#" xmlns="http://www.w3.org/2000/svg" height="32" width="32" version="1.1" xmlns:cc="http://creativecommons.org/ns#" xmlns:dc="http://purl.org/dc/elements/1.1/" viewBox="0 0 8.466667 8.4666669">
 <metadata>
  <rdf:RDF>
   <cc:Work rdf:about="">
    <dc:format>image/svg+xml</dc:format>
    <dc:type rdf:resource="http://purl.org/dc/dcmitype/StillImage"/>
    <dc:title/>
   </cc:Work>
  </rdf:RDF>
 </metadata>
 <g transform="matrix(2.0004 0 0 2 -.00093017 .014180)">
  <rect height="3.6955" width="3.6991" y=".26616" x=".26939" stroke-width=".21663" fill="none"/>
  <path d="m2.1145 0.25749c-1.0215 0-1.8495 0.82725-1.8495 1.8477 0 1.0205 0.82806 1.8477 1.8495 1.8477 1.0215 0 1.8495-0.82725 1.8495-1.8477 0-1.0205-0.82806-1.8477-1.8495-1.8477z" stroke-width=".23108" fill="#206ad9"/>
  <path opacity=".1" d="m2.8081 2.3362c0 0.38267-0.31052 0.6929-0.69357 0.6929-0.38304 0-0.69357-0.31022-0.69357-0.6929 0-0.38267 0.31052-0.6929 0.69357-0.6929 0.38304 0 0.69357 0.31022 0.69357 0.6929z" stroke-width=".21663"/>
  <path d="m2.8081 2.1045c0 0.38267-0.31052 0.6929-0.69357 0.6929-0.38304 0-0.69357-0.31022-0.69357-0.6929 0-0.38267 0.31052-0.6929 0.69357-0.6929 0.38304 0 0.69357 0.31022 0.69357 0.6929z" stroke-width=".21663" fill="#1a1a1a"/>
  <path opacity=".1" d="m2.1145 0.25749c-1.0215 0-1.8495 0.82725-1.8495 1.8477 0 0.038967 0.00349 0.077113 0.005865 0.11548 0.05989-0.9664 0.8612-1.7322 1.8436-1.7322 0.98246 0 1.7837 0.76582 1.8436 1.7322 0.00238-0.038369 0.00587-0.076515 0.00587-0.11548 0-1.0205-0.82806-1.8477-1.8495-1.8477z" stroke-width=".23108"/>
 </g>
</svg>
