<?xml version="1.0" encoding="UTF-8" standalone="no"?>
<!-- Created with Inkscape (http://www.inkscape.org/) -->

<svg
   xmlns:dc="http://purl.org/dc/elements/1.1/"
   xmlns:cc="http://creativecommons.org/ns#"
   xmlns:rdf="http://www.w3.org/1999/02/22-rdf-syntax-ns#"
   xmlns:svg="http://www.w3.org/2000/svg"
   xmlns="http://www.w3.org/2000/svg"
   xmlns:sodipodi="http://sodipodi.sourceforge.net/DTD/sodipodi-0.dtd"
   xmlns:inkscape="http://www.inkscape.org/namespaces/inkscape"
   height="16"
   width="16"
   version="1.1"
   viewBox="0 0 4.2333332 4.2333335"
   id="svg30"
   sodipodi:docname="radio-checked-insensitive-dark.svg"
   inkscape:version="0.92.1 r15371">
  <sodipodi:namedview
     pagecolor="#ffffff"
     bordercolor="#666666"
     borderopacity="1"
     objecttolerance="10"
     gridtolerance="10"
     guidetolerance="10"
     inkscape:pageopacity="0"
     inkscape:pageshadow="2"
     inkscape:window-width="818"
     inkscape:window-height="480"
     id="namedview32"
     showgrid="false"
     inkscape:zoom="14.75"
     inkscape:cx="9.0132812"
     inkscape:cy="8"
     inkscape:window-x="0"
     inkscape:window-y="28"
     inkscape:window-maximized="0"
     inkscape:current-layer="svg30" />
  <defs
     id="defs12">
    <linearGradient
       id="linearGradient4199-9-9"
       x1="10.126"
       gradientUnits="userSpaceOnUse"
       y1="12.382"
       gradientTransform="matrix(1.0667,0,0,1.0667,-154.67,-482.81)"
       x2="4.9887"
       y2="5.3464">
      <stop
         stop-color="#75afff"
         offset="0"
         id="stop2" />
      <stop
         stop-color="#8cbaff"
         offset="1"
         id="stop4" />
    </linearGradient>
    <linearGradient
       id="linearGradient4201-94-4"
       x1="11.932"
       gradientUnits="userSpaceOnUse"
       y1="13.695"
       gradientTransform="matrix(1.0667,0,0,1.0667,-154.67,-482.81)"
       x2="2.9831"
       y2="2.4407">
      <stop
         stop-color="#87b7ff"
         offset="0"
         id="stop7" />
      <stop
         stop-color="#98c1ff"
         offset="1"
         id="stop9" />
    </linearGradient>
  </defs>
  <metadata
     id="metadata14">
    <rdf:RDF>
      <cc:Work
         rdf:about="">
        <dc:format>image/svg+xml</dc:format>
        <dc:type
           rdf:resource="http://purl.org/dc/dcmitype/StillImage" />
        <dc:title />
      </cc:Work>
    </rdf:RDF>
  </metadata>
  <g
     id="g4517">
    <g
       id="g22"
       transform="matrix(.21704 0 0 .21704 33.834 105.05)"
       stroke-width="1.0667">
      <path
         id="path16"
         d="m-146.13-466.81c-4.1237 0-7.4667-3.343-7.4667-7.4667s3.3429-7.4667 7.4667-7.4667c4.1237 0 7.4667 3.343 7.4667 7.4667s-3.3429 7.4667-7.4667 7.4667z"
         fill="#fff" />
      <path
         id="path18"
         d="m-146.13-482.81c-4.7128 0-8.5333 3.8205-8.5333 8.5333s3.8205 8.5333 8.5333 8.5333 8.5333-3.8205 8.5333-8.5333-3.8205-8.5333-8.5333-8.5333z"
         fill="url(#linearGradient4199-9-9)" />
      <path
         id="path20"
         d="m-146.13-482.81c-4.7128 0-8.5333 3.8205-8.5333 8.5333s3.8205 8.5333 8.5333 8.5333 8.5333-3.8205 8.5333-8.5333-3.8205-8.5333-8.5333-8.5333zm0 1.0667c4.1237 0 7.4667 3.343 7.4667 7.4667s-3.3429 7.4667-7.4667 7.4667c-4.1237 0-7.4667-3.343-7.4667-7.4667s3.3429-7.4667 7.4667-7.4667z"
         fill="url(#linearGradient4201-94-4)"
         fill-opacity=".99216" />
    </g>
    <path
       id="path24"
       d="m2.8127 2.3477c0 0.38357-0.31095 0.69453-0.69453 0.69453-0.38357 0-0.69453-0.31095-0.69453-0.69453 0-0.38357 0.31095-0.69453 0.69453-0.69453 0.38357 0 0.69453 0.31095 0.69453 0.69453z"
       stroke-width=".21704"
       opacity=".2" />
    <path
       id="path26"
       d="m2.8127 2.1154c0 0.38357-0.31095 0.69453-0.69453 0.69453-0.38357 0-0.69453-0.31095-0.69453-0.69453 0-0.38357 0.31095-0.69453 0.69453-0.69453 0.38357 0 0.69453 0.31095 0.69453 0.69453z"
       fill="#1a1a1a"
       stroke-width=".21704" />
    <path
       id="path28"
       d="m2.1182 0.2641c-1.0229 0-1.8521 0.8292-1.8521 1.8521 0 0.039061 0.003494 0.077294 0.005882 0.11575 0.06002-0.9687 0.8624-1.7363 1.8462-1.7363s1.7862 0.76763 1.8462 1.7363c0.00239-0.03846 0.00588-0.076693 0.00588-0.11575 0-1.0229-0.8292-1.8521-1.8521-1.8521z"
       stroke-width=".23152"
       opacity=".2" />
  </g>
</svg>
